<?xml version="1.0" encoding="UTF-8" standalone="no"?>
<svg
   viewBox="0 0 512 512"
   version="1.1"
   id="svg1"
   sodipodi:docname="tr-note.svg"
   inkscape:version="1.4.2 (f4327f4, 2025-05-13)"
   width="512"
   height="512"
   xmlns:inkscape="http://www.inkscape.org/namespaces/inkscape"
   xmlns:sodipodi="http://sodipodi.sourceforge.net/DTD/sodipodi-0.dtd"
   xmlns="http://www.w3.org/2000/svg"
   xmlns:svg="http://www.w3.org/2000/svg">
  <defs
     id="defs1" />
  <sodipodi:namedview
     id="namedview1"
     pagecolor="#ffffff"
     bordercolor="#000000"
     borderopacity="0.25"
     inkscape:showpageshadow="2"
     inkscape:pageopacity="0.0"
     inkscape:pagecheckerboard="0"
     inkscape:deskcolor="#d1d1d1"
     inkscape:zoom="1.1255704"
     inkscape:cx="301.62485"
     inkscape:cy="301.62485"
     inkscape:window-width="1904"
     inkscape:window-height="1001"
     inkscape:window-x="0"
     inkscape:window-y="0"
     inkscape:window-maximized="0"
     inkscape:current-layer="svg1" />
  <!--! Font Awesome Free 6.7.2 by @fontawesome - https://fontawesome.com License - https://fontawesome.com/license/free (Icons: CC BY 4.0, Fonts: SIL OFL 1.1, Code: MIT License) Copyright 2024 Fonticons, Inc. -->
  <path
     d="M 102.42223,0 C 41.959746,0 0,33.227177 0,86.227177 V 416 c 0,53 37.905618,96 98.368104,96 H 438.06782 l 12.18089,-2.66531 c 19.59104,-4.28674 58.80335,-41.8416 58.80335,-59.5416 0,-17.7 2.02707,-80.09309 2.02707,-97.79309 V 56.876277 C 511.07913,21.407508 472.46796,0 452.27577,0 h -14.20795 z m 24.27339,81.221015 58.70683,-5.33063 c 9.99129,-0.907217 124.84718,135.135135 124.84718,143.935135 0,8.8 -14.44919,-139.714435 -4.42587,-139.476732 l 65.15389,0.888448 -2.68988,247.874334 -74.13799,-1.77688 c -57.39587,-69.2982 -71.02484,-188.58123 -120.00717,-127.93514 -7.87926,9.75548 35.40675,115.06258 12.52948,131.58894 -22.87728,16.52637 -55.03037,4.29185 -63.02632,-5.43878 -5.58693,-6.79899 -6.94142,-243.42148 3.04985,-244.328695 z"
     id="path1"
     sodipodi:nodetypes="sssscssssscssssscccssss"
     style="fill:#008080;fill-opacity:1;stroke-width:1.06808" />
  <path
     d="m 101.42258,395.54971 c -41.082067,-4.2714 66.0618,-1.12733 354.88419,1.77686 v 80.88034 L 91.287252,474.65316 c -20.190941,-0.19658 -36.505651,-25.8497 -36.505651,-43.5497 0,-17.7 26.448872,-35.60504 46.640979,-35.55375 z"
     style="fill:#ffc233;fill-opacity:1;stroke-width:1.06808"
     id="path1-4"
     sodipodi:nodetypes="cccssc" />
</svg>
